<?xml version="1.0" encoding="UTF-8" standalone="no"?>
<!-- Generator: Adobe Illustrator 24.3.0, SVG Export Plug-In . SVG Version: 6.00 Build 0)  -->

<svg
   version="1.1"
   id="Warstwa_1"
   x="0px"
   y="0px"
   viewBox="0 0 460 140"
   xml:space="preserve"
   sodipodi:docname="main_scale.svg"
   width="460"
   height="140"
   inkscape:version="1.1 (c68e22c387, 2021-05-23)"
   xmlns:inkscape="http://www.inkscape.org/namespaces/inkscape"
   xmlns:sodipodi="http://sodipodi.sourceforge.net/DTD/sodipodi-0.dtd"
   xmlns="http://www.w3.org/2000/svg"
   xmlns:svg="http://www.w3.org/2000/svg"><defs
   id="defs24" /><sodipodi:namedview
   id="namedview22"
   pagecolor="#ffffff"
   bordercolor="#666666"
   borderopacity="1.0"
   inkscape:pageshadow="2"
   inkscape:pageopacity="0.0"
   inkscape:pagecheckerboard="0"
   showgrid="false"
   inkscape:zoom="0.748"
   inkscape:cx="500"
   inkscape:cy="393.71658"
   inkscape:window-width="1920"
   inkscape:window-height="1017"
   inkscape:window-x="1912"
   inkscape:window-y="-8"
   inkscape:window-maximized="1"
   inkscape:current-layer="Warstwa_1" />
<style
   type="text/css"
   id="style2">
	.st0{fill:#007EE5;}
	.st1{fill:#001340;}
	.st2{fill:#1A1A1A;}
	.st3{fill:#FFFFFF;}
	.st4{fill:#121212;}
	.st5{fill:#646464;}
</style>
<g
   id="g24"
   transform="translate(-271.39037,-430.48128)">
	<path
   id="path4"
   class="st1"
   d="m 297.89,459.44 c -1.63,-1.46 -3.65,-2.18 -6.05,-2.18 -2.41,0 -4.43,0.77 -6.06,2.29 -1.62,1.52 -2.44,3.41 -2.44,5.67 0,2.28 0.82,4.16 2.44,5.69 1.63,1.52 3.65,2.29 6.06,2.29 2.48,0 4.51,-0.81 6.1,-2.4 1.59,-1.59 2.38,-3.56 2.38,-5.89 0.01,-2.19 -0.8,-4.01 -2.43,-5.47 z" />
	<path
   id="rect6"
   class="st1"
   d="m 285.14,482.54 h 13.38 v 56.71 h -13.38 z" />
	<path
   id="path8"
   class="st1"
   d="m 570.8,459.44 c -1.63,-1.46 -3.65,-2.18 -6.05,-2.18 -2.41,0 -4.43,0.77 -6.06,2.29 -1.62,1.52 -2.44,3.41 -2.44,5.67 0,2.28 0.82,4.16 2.44,5.69 1.63,1.52 3.65,2.29 6.06,2.29 2.48,0 4.51,-0.81 6.1,-2.4 1.59,-1.59 2.38,-3.56 2.38,-5.89 0.01,-2.19 -0.8,-4.01 -2.43,-5.47 z" />
	<path
   id="rect10"
   class="st1"
   d="m 558.06,482.54 h 13.38 v 56.71 h -13.38 z" />
	<path
   id="path12"
   class="st1"
   d="m 413.16,535.53 c -1.56,1.27 -3.45,2.22 -5.68,2.86 -2.23,0.64 -4.59,0.95 -7.06,0.95 -6.23,0 -11.04,-1.62 -14.44,-4.87 -3.4,-3.25 -5.1,-7.98 -5.1,-14.19 v -50.72 h 13.27 v 12.92 h 15.18 v 10.59 h -15.18 v 26.9 c 0,2.75 0.69,4.85 2.07,6.3 1.38,1.45 3.31,2.17 5.79,2.17 2.97,0 5.45,-0.78 7.43,-2.33 z" />
	<g
   id="g16">
		<path
   id="path14"
   class="st1"
   d="m 545.61,503.69 c -0.28,-2.34 -0.88,-4.65 -1.85,-6.8 -1.41,-3.18 -3.48,-6.02 -6.17,-8.53 -1.37,-1.27 -2.84,-2.38 -4.39,-3.33 -4.94,-3.06 -10.82,-4.58 -17.6,-4.58 -9.04,0 -16.44,2.63 -22.16,7.91 -4.49,4.15 -7.17,9.26 -8.12,15.33 -0.08,0.47 -0.15,0.96 -0.2,1.45 -0.08,0.62 -0.13,1.24 -0.18,1.87 -0.01,0.3 -0.03,0.59 -0.04,0.89 -0.01,0.34 -0.01,0.67 -0.01,1.01 v 0.08 c 0,5.38 1.25,10.16 3.77,14.34 2.51,4.18 5.94,7.42 10.29,9.71 4.35,2.3 9.22,3.45 14.6,3.45 3.89,0 7.46,-0.63 10.72,-1.9 3.25,-1.28 6.01,-3.15 8.29,-5.63 v 2.96 c 0,5.81 -1.46,10.13 -4.37,12.96 -2.9,2.83 -7.46,4.24 -13.69,4.24 -3.89,0 -7.73,-0.62 -11.52,-1.86 -3.8,-1.24 -6.93,-2.88 -9.4,-4.93 l -5.94,9.98 c 3.18,2.61 7.22,4.62 12.1,6 4.89,1.39 10.05,2.07 15.51,2.07 20.38,0 30.58,-9.98 30.58,-29.95 v -23.07 c 0.01,-1.22 -0.06,-2.45 -0.22,-3.67 z M 532.77,509 c 0,4.81 -1.6,8.73 -4.82,11.73 -3.22,3 -7.34,4.51 -12.37,4.51 -5.11,0 -9.27,-1.51 -12.49,-4.51 -3.22,-3 -4.82,-6.93 -4.82,-11.73 v -0.08 c 0,-1.89 0.26,-3.64 0.78,-5.23 0.77,-2.4 2.12,-4.49 4.04,-6.27 3.22,-2.98 7.38,-4.46 12.49,-4.46 5.03,0 9.15,1.48 12.37,4.46 1.93,1.78 3.27,3.87 4.04,6.27 0.51,1.59 0.77,3.34 0.78,5.23 V 509 Z" />
	</g>
	<g
   id="g20">
		<path
   id="path18"
   class="st1"
   d="m 370.18,507.57 v 31.68 h -13.07 v -30.14 c -0.01,-1.87 -0.27,-3.61 -0.77,-5.19 0,-0.01 -0.01,-0.03 -0.01,-0.04 -0.77,-2.4 -2.12,-4.49 -4.04,-6.26 -3.22,-2.98 -7.34,-4.46 -12.37,-4.46 -5.11,0 -9.27,1.48 -12.49,4.46 -1.93,1.78 -3.27,3.87 -4.04,6.26 0,0.01 -0.01,0.03 -0.01,0.04 -0.51,1.58 -0.77,3.31 -0.77,5.19 v 30.14 h -13.38 v -30.14 c 0,-0.34 0,-0.67 0.01,-1.01 0.01,-0.3 0.03,-0.58 0.04,-0.88 v -0.01 c 0.04,-0.63 0.09,-1.25 0.18,-1.87 0.05,-0.49 0.12,-0.96 0.2,-1.41 v -0.04 c 0.96,-6.08 3.64,-11.18 8.12,-15.33 5.73,-5.28 13.12,-7.91 22.16,-7.91 6.78,0 12.65,1.52 17.6,4.58 1.55,0.94 3.02,2.06 4.39,3.33 2.69,2.51 4.76,5.35 6.17,8.53 0.97,2.16 1.56,4.46 1.85,6.8 v 0.04 c 0.16,1.19 0.23,2.42 0.23,3.64 z" />
	</g>
	<path
   id="path22"
   class="st1"
   d="m 477.94,507.02 c -0.04,-0.52 -0.07,-1.05 -0.14,-1.57 -0.01,-0.1 -0.02,-0.2 -0.04,-0.31 -1.56,-15.25 -14.82,-24.94 -30.4,-24.69 -15.58,-0.25 -28.84,9.44 -30.4,24.69 -0.09,0.62 -0.14,1.24 -0.18,1.87 -0.02,0.31 -0.04,0.63 -0.06,0.94 v 0.23 c 0,0.25 0.01,0.49 0.01,0.74 0.04,1.65 0.22,3.29 0.52,4.88 0.34,1.83 0.83,3.56 1.44,5.26 0.61,1.71 1.36,3.41 2.28,5.03 1.82,3.25 4.24,6.26 7.19,8.63 2.94,2.42 6.32,4.2 9.77,5.35 3.46,1.16 7.09,1.71 10.71,1.71 3.64,-0.08 7.32,-0.7 10.77,-2.19 4.84,-2.05 8.97,-5.61 11.71,-9.93 l -0.11,-0.1 -6,-5.74 c -2.67,2.76 -5.92,4.6 -9.37,5.53 -2.61,0.7 -5.48,0.83 -8.3,0.43 -1.78,-0.26 -3.53,-0.73 -5.18,-1.41 -4.3,-1.73 -8.18,-4.6 -10.24,-8.56 -0.39,-0.7 -0.7,-1.48 -0.97,-2.28 h 46.36 c 0.14,-0.57 0.25,-1.16 0.34,-1.76 0.37,-2.16 0.46,-4.41 0.29,-6.75 z m -47.52,-1.57 c 1.53,-7.57 8.61,-12.68 16.94,-12.49 8.33,-0.2 15.41,4.91 16.94,12.49 z" />
</g>
<g
   id="g19"
   transform="translate(-271.39037,-430.48128)">
	<path
   class="st0"
   d="m 695.94,510.36 c 0,27.63 -22.39,50.02 -50.02,50.02 -27.62,0 -50.01,-22.39 -50.01,-50.02 0,-27.62 22.39,-50.02 50.01,-50.02 v 50.02 z"
   id="path15" />
	<path
   class="st1"
   d="m 716.66,439.62 v 70.74 h -20.72 c 0,-27.62 -22.39,-50.02 -50.02,-50.02 v -20.72 z"
   id="path17" />
</g>
</svg>
